<?xml version="1.0" encoding="utf-8" standalone="yes"?> <svg width="1000" height="1000" viewBox="-1 -1 27 27" xmlns="http://www.w3.org/2000/svg" shape-rendering="crispEdges" id="qr code"><rect id="qr background" fill-opacity="1" fill="rgb(255, 255, 255)" x="-1" y="-1" width="27" height="27"></rect><path fill-opacity="1" fill="rgb(0, 0, 0)" id="qr dark pixels" fill-rule="evenodd" d="M 9 0 L 11 0 L 11 1 L 12 1 L 12 0 L 17 0 L 17 2 L 16 2 L 16 5 L 17 5 L 17 8 L 19 8 L 19 10 L 21 10 L 21 11 L 20 11 L 20 13 L 19 13 L 19 14 L 18 14 L 18 15 L 19 15 L 19 16 L 16 16 L 16 15 L 17 15 L 17 14 L 16 14 L 16 12 L 15 12 L 15 11 L 18 11 L 18 9 L 15 9 L 15 8 L 16 8 L 16 6 L 15 6 L 15 7 L 14 7 L 14 6 L 13 6 L 13 7 L 14 7 L 14 9 L 13 9 L 13 8 L 12 8 L 12 6 L 11 6 L 11 5 L 15 5 L 15 2 L 14 2 L 14 1 L 13 1 L 13 4 L 11 4 L 11 5 L 10 5 L 10 4 L 9 4 L 9 3 L 8 3 L 8 2 L 10 2 L 10 1 L 9 1 zM 11 2 L 12 2 L 12 3 L 11 3 z M 17 12 L 18 12 L 18 13 L 17 13 z M 9 5 L 10 5 L 10 6 L 9 6 z M 8 6 L 9 6 L 9 7 L 10 7 L 10 6 L 11 6 L 11 10 L 10 10 L 10 8 L 9 8 L 9 9 L 6 9 L 6 10 L 7 10 L 7 11 L 6 11 L 6 12 L 8 12 L 8 13 L 9 13 L 9 14 L 8 14 L 8 15 L 9 15 L 9 14 L 11 14 L 11 15 L 10 15 L 10 16 L 8 16 L 8 17 L 4 17 L 4 15 L 5 15 L 5 16 L 7 16 L 7 15 L 6 15 L 6 14 L 7 14 L 7 13 L 5 13 L 5 14 L 4 14 L 4 12 L 5 12 L 5 9 L 4 9 L 4 8 L 8 8 z M 0 8 L 3 8 L 3 9 L 1 9 L 1 10 L 0 10 z M 22 8 L 23 8 L 23 9 L 22 9 z M 3 9 L 4 9 L 4 12 L 3 12 L 3 11 L 2 11 L 2 12 L 1 12 L 1 13 L 0 13 L 0 11 L 1 11 L 1 10 L 3 10 z M 12 9 L 13 9 L 13 10 L 12 10 z M 24 9 L 25 9 L 25 11 L 24 11 L 24 12 L 25 12 L 25 15 L 24 15 L 24 16 L 23 16 L 23 15 L 22 15 L 22 14 L 24 14 L 24 13 L 23 13 L 23 11 L 22 11 L 22 10 L 24 10 z M 9 10 L 10 10 L 10 11 L 9 11 z M 14 10 L 15 10 L 15 11 L 14 11 z M 8 11 L 9 11 L 9 12 L 8 12 z M 12 11 L 14 11 L 14 12 L 15 12 L 15 14 L 14 14 L 14 15 L 15 15 L 15 16 L 14 16 L 14 19 L 15 19 L 15 20 L 14 20 L 14 21 L 15 21 L 15 22 L 14 22 L 14 25 L 8 25 L 8 22 L 9 22 L 9 24 L 10 24 L 10 22 L 9 22 L 9 21 L 11 21 L 11 24 L 13 24 L 13 23 L 12 23 L 12 21 L 11 21 L 11 20 L 13 20 L 13 19 L 12 19 L 12 18 L 11 18 L 11 20 L 9 20 L 9 21 L 8 21 L 8 17 L 9 17 L 9 19 L 10 19 L 10 17 L 13 17 L 13 16 L 11 16 L 11 15 L 13 15 L 13 12 L 12 12 z M 21 12 L 22 12 L 22 14 L 21 14 z M 2 13 L 3 13 L 3 15 L 2 15 z M 0 14 L 1 14 L 1 15 L 0 15 z M 19 14 L 20 14 L 20 15 L 19 15 z M 1 15 L 2 15 L 2 16 L 1 16 z M 20 15 L 21 15 L 21 16 L 20 16 z M 0 16 L 1 16 L 1 17 L 0 17 z M 2 16 L 3 16 L 3 17 L 2 17 z M 21 16 L 22 16 L 22 21 L 23 21 L 23 22 L 21 22 L 21 23 L 22 23 L 22 24 L 20 24 L 20 22 L 19 22 L 19 21 L 21 21 z M 15 17 L 16 17 L 16 19 L 15 19 z M 23 17 L 25 17 L 25 19 L 23 19 z M 23 20 L 24 20 L 24 21 L 23 21 z M 16 22 L 18 22 L 18 24 L 17 24 L 17 25 L 15 25 L 15 23 L 16 23 z M 24 22 L 25 22 L 25 23 L 24 23 z M 23 23 L 24 23 L 24 24 L 25 24 L 25 25 L 23 25 z M 18 24 L 20 24 L 20 25 L 18 25 z"></path><path id="qr squares" d="M0,0h7h0v0v7v0h0h-7h0v0v-7v0h0zM1,1h5h0v0v5v0h0h-5h0v0v-5v0h0zM2,2h3h0v0v3v0h0h-3h0v0v-3v0h0z M18,0h7h0v0v7v0h0h-7h0v0v-7v0h0zM19,1h5h0v0v5v0h0h-5h0v0v-5v0h0zM20,2h3h0v0v3v0h0h-3h0v0v-3v0h0z M0,18h7h0v0v7v0h0h-7h0v0v-7v0h0zM1,19h5h0v0v5v0h0h-5h0v0v-5v0h0zM2,20h3h0v0v3v0h0h-3h0v0v-3v0h0zM16,16h5h0v0v5v0h0h-5h0v0v-5v0h0zM17,17h3h0v0v3v0h0h-3h0v0v-3v0h0zM18,18h1h0v0v1v0h0h-1h0v0v-1v0h0z" fill-rule="evenodd" fill-opacity="1" fill="rgb(0, 0, 0)"></path></svg>